<svg xmlns="http://www.w3.org/2000/svg" width="135" height="40" fill="none"><g clip-path="url(#a)"><path fill="#100F0D" d="M130 40H5c-2.75 0-5-2.25-5-5V5c0-2.75 2.25-5 5-5h125c2.75 0 5 2.25 5 5v30c0 2.75-2.25 5-5 5z"/><path fill="#A2A2A1" d="M130 0H5C2.25 0 0 2.25 0 5v30c0 2.75 2.25 5 5 5h125c2.75 0 5-2.25 5-5V5c0-2.75-2.25-5-5-5zm0 .8c2.316 0 4.2 1.884 4.2 4.2v30c0 2.316-1.884 4.2-4.2 4.2H5A4.205 4.205 0 01.8 35V5C.8 2.684 2.684.8 5 .8h125z"/><path fill="#EA4335" d="M20.717 19.424l-10.646 11.3.001.007a2.875 2.875 0 004.237 1.734l.034-.02 11.984-6.915-5.61-6.106z"/><path fill="#FBBC04" d="M31.488 17.5l-.01-.007-5.174-3-5.829 5.187 5.85 5.849 5.146-2.97a2.877 2.877 0 00.017-5.059z"/><path fill="#4285F4" d="M10.07 9.277a2.818 2.818 0 00-.097.74v19.968c0 .256.033.504.098.74l11.013-11.012L10.07 9.277z"/><path fill="#34A853" d="M20.796 20.001l5.51-5.509-11.97-6.94a2.882 2.882 0 00-4.265 1.722v.003l10.725 10.724z"/><path fill="#fff" stroke="#fff" stroke-miterlimit="10" stroke-width=".2" d="M47.368 9.795h-2.904v.72h2.175c-.057.585-.292 1.046-.686 1.38-.393.335-.895.502-1.489.502a2.255 2.255 0 01-1.657-.677c-.444-.46-.67-1.03-.67-1.715 0-.688.226-1.257.67-1.716a2.25 2.25 0 011.657-.678c.335 0 .652.058.946.184.292.125.526.3.71.527l.552-.552a2.506 2.506 0 00-.96-.662 3.3 3.3 0 00-1.248-.233c-.87 0-1.607.3-2.209.903-.603.603-.905 1.347-.905 2.227 0 .878.302 1.623.905 2.225.602.603 1.34.904 2.21.904.91 0 1.638-.293 2.2-.887.493-.494.745-1.163.745-2 0-.142-.017-.294-.042-.452zm1.156-2.787V13h3.497v-.736h-2.728v-1.9h2.46v-.72h-2.46V7.745h2.728v-.737h-3.497zm8.425.737v-.737h-4.117v.737h1.673V13h.769V7.745h1.675zm3.757-.737h-.769V13h.769V7.008zm5.092.737v-.737h-4.117v.737h1.674V13h.768V7.745h1.675zm7.799.04c-.594-.61-1.322-.91-2.192-.91-.87 0-1.599.3-2.192.903-.594.594-.888 1.34-.888 2.227 0 .886.294 1.63.888 2.225.593.603 1.321.904 2.192.904.862 0 1.598-.301 2.192-.904.595-.594.887-1.34.887-2.225 0-.88-.292-1.624-.887-2.22zm-3.833.504c.444-.453.987-.678 1.64-.678.654 0 1.198.225 1.633.678.443.444.661 1.02.661 1.716 0 .693-.218 1.272-.66 1.715-.436.452-.98.677-1.633.677-.654 0-1.197-.225-1.641-.677-.434-.453-.652-1.022-.652-1.715 0-.696.218-1.264.652-1.716zm6.58.978l-.033-1.154h.033L79.39 13h.803V7.008h-.77v3.506l.034 1.155h-.035L76.51 7.008h-.936V13h.769V9.267z"/><path fill="#fff" d="M106.936 30h1.866V17.498h-1.866V30zm16.807-7.998l-2.139 5.42h-.064l-2.22-5.42h-2.01l3.33 7.575-1.899 4.214h1.946l5.131-11.789h-2.075zM113.16 28.58c-.61 0-1.463-.306-1.463-1.062 0-.965 1.062-1.334 1.978-1.334.82 0 1.207.176 1.705.418a2.262 2.262 0 01-2.22 1.978zm.226-6.851c-1.351 0-2.75.595-3.329 1.914l1.656.691c.354-.691 1.013-.916 1.705-.916.965 0 1.946.578 1.962 1.608v.128c-.338-.193-1.062-.482-1.946-.482-1.786 0-3.603.98-3.603 2.814 0 1.673 1.464 2.75 3.104 2.75 1.254 0 1.947-.562 2.38-1.222h.065v.966h1.802v-4.794c0-2.22-1.658-3.457-3.796-3.457zm-11.532 1.795H99.2v-4.285h2.654c1.395 0 2.187 1.154 2.187 2.142 0 .969-.792 2.143-2.187 2.143zm-.048-6.026h-4.471V30H99.2v-4.736h2.606c2.068 0 4.101-1.497 4.101-3.883 0-2.385-2.033-3.883-4.101-3.883zM77.424 28.582c-1.289 0-2.368-1.08-2.368-2.56 0-1.5 1.08-2.595 2.368-2.595 1.273 0 2.272 1.095 2.272 2.594 0 1.482-.999 2.561-2.272 2.561zm2.143-5.88h-.064c-.42-.5-1.225-.95-2.24-.95-2.126 0-4.076 1.869-4.076 4.27 0 2.383 1.95 4.236 4.077 4.236 1.014 0 1.82-.451 2.239-.967h.064v.612c0 1.628-.87 2.497-2.271 2.497-1.144 0-1.853-.821-2.143-1.514l-1.627.677c.467 1.127 1.707 2.513 3.77 2.513 2.191 0 4.044-1.289 4.044-4.43v-7.637h-1.773v.693zM82.63 30h1.868V17.498H82.63V30zm4.623-4.124c-.048-1.644 1.273-2.481 2.223-2.481.742 0 1.37.37 1.58.902l-3.803 1.579zm5.8-1.418c-.355-.95-1.434-2.706-3.641-2.706-2.192 0-4.012 1.723-4.012 4.253 0 2.384 1.805 4.253 4.22 4.253 1.95 0 3.078-1.192 3.546-1.885l-1.45-.967c-.484.71-1.144 1.176-2.095 1.176-.95 0-1.627-.435-2.062-1.289l5.687-2.352-.194-.483zm-45.308-1.401v1.804h4.317c-.129 1.015-.467 1.756-.983 2.271-.628.628-1.61 1.321-3.334 1.321-2.658 0-4.737-2.142-4.737-4.8 0-2.659 2.079-4.801 4.737-4.801 1.434 0 2.48.564 3.254 1.289l1.273-1.273c-1.08-1.031-2.513-1.82-4.527-1.82-3.642 0-6.703 2.964-6.703 6.605 0 3.64 3.061 6.605 6.703 6.605 1.965 0 3.447-.645 4.607-1.853 1.192-1.192 1.563-2.867 1.563-4.221 0-.418-.032-.805-.097-1.127h-6.073zm11.079 5.525c-1.29 0-2.401-1.063-2.401-2.577 0-1.53 1.112-2.578 2.4-2.578 1.29 0 2.4 1.047 2.4 2.578 0 1.514-1.11 2.577-2.4 2.577zm0-6.83c-2.353 0-4.27 1.788-4.27 4.253 0 2.448 1.917 4.253 4.27 4.253 2.352 0 4.269-1.805 4.269-4.253 0-2.465-1.917-4.253-4.27-4.253zm9.312 6.83c-1.288 0-2.4-1.063-2.4-2.577 0-1.53 1.112-2.578 2.4-2.578 1.29 0 2.4 1.047 2.4 2.578 0 1.514-1.11 2.577-2.4 2.577zm0-6.83c-2.352 0-4.268 1.788-4.268 4.253 0 2.448 1.917 4.253 4.268 4.253 2.353 0 4.27-1.805 4.27-4.253 0-2.465-1.917-4.253-4.27-4.253z"/></g><defs><clipPath id="a"><path fill="#fff" d="M0 0h135v40H0z"/></clipPath></defs></svg>